<svg width="128" height="128" viewBox="0 0 128 128" fill="none" xmlns="http://www.w3.org/2000/svg">
<path d="M49.07 32.66C34.7 30.04 23.35 32.78 18.82 40.66C15.44 46.51 16.41 54.27 21.16 62.56C21.2566 62.7281 21.3853 62.8755 21.5388 62.9939C21.6923 63.1122 21.8676 63.1992 22.0547 63.2498C22.2418 63.3004 22.437 63.3137 22.6293 63.2888C22.8215 63.264 23.007 63.2015 23.175 63.105C23.3431 63.0084 23.4906 62.8798 23.6089 62.7263C23.7273 62.5728 23.8143 62.3975 23.8649 62.2103C23.9155 62.0232 23.9287 61.828 23.9039 61.6358C23.879 61.4435 23.8166 61.2581 23.72 61.09C19.44 53.62 18.6 46.92 21.37 42.09C25.13 35.58 35.26 33.09 48.54 35.55C48.9246 35.6202 49.3213 35.5349 49.643 35.3127C49.9646 35.0904 50.1848 34.7495 50.255 34.365C50.3253 33.9804 50.24 33.5837 50.0177 33.262C49.7955 32.9404 49.4546 32.7203 49.07 32.65V32.66ZM28.63 72.61C35.0374 79.4767 42.4564 85.3242 50.63 89.95C71.47 101.95 93.63 105.2 104.63 97.74C104.952 97.5198 105.174 97.1807 105.246 96.7972C105.318 96.4137 105.235 96.0172 105.015 95.695C104.795 95.3727 104.456 95.1511 104.072 95.0789C103.689 95.0067 103.292 95.0898 102.97 95.31C93.11 102 72 98.92 52.07 87.39C44.1719 82.9135 37.0028 77.2585 30.81 70.62C30.5448 70.3309 30.1756 70.159 29.7837 70.1421C29.3917 70.1252 29.0091 70.2648 28.72 70.53C28.431 70.7952 28.2591 71.1644 28.2422 71.5563C28.2253 71.9483 28.3648 72.3309 28.63 72.62V72.61Z" fill="#47848F"/>
<path d="M101.06 70.81C110.47 59.7 113.75 48.52 109.23 40.7C105.91 34.94 98.8801 31.9 89.5401 31.78C89.1489 31.78 88.7737 31.9354 88.4971 32.212C88.2205 32.4886 88.0651 32.8638 88.0651 33.255C88.0651 33.6462 88.2205 34.0213 88.4971 34.2979C88.7737 34.5746 89.1489 34.73 89.5401 34.73C97.9401 34.84 103.99 37.46 106.72 42.18C110.47 48.68 107.54 58.65 98.8501 68.92C98.7253 69.0677 98.6309 69.2386 98.5722 69.4228C98.5134 69.607 98.4916 69.801 98.5078 69.9937C98.5241 70.1864 98.5781 70.374 98.6669 70.5458C98.7556 70.7176 98.8773 70.8702 99.0251 70.995C99.1728 71.1197 99.3437 71.2142 99.5279 71.2729C99.7121 71.3316 99.9061 71.3535 100.099 71.3372C100.291 71.321 100.479 71.2669 100.651 71.1782C100.823 71.0894 100.975 70.9677 101.1 70.82L101.06 70.81ZM76.8901 33.15C67.6571 35.2453 58.8028 38.7533 50.6401 43.55C29.1301 56 15.0901 74.29 17.0001 87.57C17.0283 87.767 17.0951 87.9564 17.1965 88.1276C17.298 88.2988 17.4322 88.4483 17.5914 88.5677C17.7507 88.687 17.9319 88.7738 18.1247 88.8231C18.3175 88.8724 18.5181 88.8832 18.7151 88.855C18.912 88.8267 19.1015 88.76 19.2727 88.6585C19.4439 88.557 19.5934 88.4229 19.7128 88.2636C19.8321 88.1044 19.9189 87.9232 19.9682 87.7304C20.0175 87.5376 20.0283 87.337 20.0001 87.14C18.2301 75.35 31.5301 58 52.1101 46.11C60.006 41.453 68.5736 38.0428 77.5101 36C77.6992 35.9593 77.8784 35.8817 78.0375 35.7717C78.1967 35.6617 78.3326 35.5215 78.4375 35.359C78.5424 35.1965 78.6143 35.0149 78.6491 34.8246C78.6838 34.6343 78.6808 34.4391 78.6401 34.25C78.5994 34.0609 78.5218 33.8816 78.4118 33.7225C78.3018 33.5634 78.1616 33.4275 77.9991 33.3225C77.8366 33.2176 77.655 33.1457 77.4647 33.1109C77.2744 33.0762 77.0792 33.0793 76.8901 33.12V33.15Z" fill="#47848F"/>
<path d="M42 96.78C47 110.51 55 119 64.05 119C70.65 119 76.75 114.5 81.51 106.58C81.7196 106.247 81.7883 105.845 81.7011 105.461C81.6139 105.078 81.3779 104.744 81.045 104.535C80.7122 104.325 80.3097 104.257 79.9262 104.344C79.5427 104.431 79.2096 104.667 79 105C74.72 112.12 69.47 116 64.06 116C56.54 116 49.37 108.46 44.82 95.76C44.6874 95.3926 44.4143 95.093 44.0608 94.9271C43.7073 94.7611 43.3024 94.7423 42.935 94.875C42.5677 95.0076 42.2681 95.2807 42.1021 95.6342C41.9362 95.9877 41.9174 96.3926 42.05 96.76L42 96.78ZM87 94.09C89.6602 85.2365 90.9782 76.0342 90.91 66.79C90.91 42.38 82.37 21.35 70.2 15.94C70.0228 15.8612 69.8317 15.8181 69.6377 15.8131C69.4438 15.8082 69.2508 15.8414 69.0697 15.9111C68.8886 15.9807 68.7231 16.0854 68.5824 16.219C68.4418 16.3526 68.3288 16.5127 68.25 16.69C68.0909 17.048 68.0805 17.4546 68.2212 17.8203C68.3618 18.186 68.642 18.4808 69 18.64C79.85 23.46 88 43.42 88 66.79C88.0665 75.736 86.7924 84.6415 84.22 93.21C84.1623 93.3945 84.1414 93.5885 84.1586 93.7811C84.1758 93.9737 84.2308 94.161 84.3204 94.3323C84.41 94.5036 84.5325 94.6556 84.6809 94.7796C84.8292 94.9036 85.0005 94.9972 85.185 95.055C85.3695 95.1127 85.5636 95.1336 85.7562 95.1164C85.9488 95.0992 86.1361 95.0442 86.3074 94.9546C86.4787 94.865 86.6307 94.7425 86.7547 94.5941C86.8787 94.4458 86.9723 94.2745 87.03 94.09H87ZM114.71 92.65C114.71 91.2556 114.297 89.8926 113.522 88.7332C112.747 87.5738 111.646 86.6702 110.358 86.1366C109.07 85.603 107.652 85.4634 106.285 85.7354C104.917 86.0074 103.661 86.6789 102.675 87.6648C101.689 88.6508 101.018 89.907 100.745 91.2746C100.473 92.6421 100.613 94.0597 101.147 95.3479C101.68 96.6361 102.584 97.7372 103.743 98.5118C104.903 99.2865 106.266 99.7 107.66 99.7C108.586 99.7 109.503 99.5176 110.358 99.1633C111.213 98.809 111.99 98.2897 112.645 97.6351C113.3 96.9804 113.819 96.2032 114.173 95.3479C114.528 94.4925 114.71 93.5758 114.71 92.65V92.65ZM111.76 92.65C111.76 93.4609 111.52 94.2536 111.069 94.9278C110.619 95.602 109.978 96.1275 109.229 96.4379C108.48 96.7482 107.655 96.8294 106.86 96.6712C106.065 96.513 105.334 96.1225 104.761 95.5491C104.188 94.9757 103.797 94.2451 103.639 93.4498C103.481 92.6545 103.562 91.8301 103.872 91.081C104.182 90.3318 104.708 89.6914 105.382 89.2409C106.056 88.7904 106.849 88.55 107.66 88.55C108.747 88.55 109.79 88.9819 110.559 89.7508C111.328 90.5197 111.76 91.5626 111.76 92.65V92.65ZM20.34 99.7C21.7344 99.7 23.0974 99.2865 24.2568 98.5118C25.4162 97.7372 26.3198 96.6361 26.8534 95.3479C27.387 94.0597 27.5266 92.6421 27.2546 91.2746C26.9825 89.907 26.3111 88.6508 25.3251 87.6648C24.3392 86.6789 23.083 86.0074 21.7154 85.7354C20.3479 85.4634 18.9303 85.603 17.6421 86.1366C16.3539 86.6702 15.2528 87.5738 14.4782 88.7332C13.7035 89.8926 13.29 91.2556 13.29 92.65C13.29 94.5197 14.0328 96.3129 15.3549 97.6351C16.6771 98.9572 18.4703 99.7 20.34 99.7V99.7ZM20.34 96.75C19.5291 96.75 18.7364 96.5095 18.0622 96.059C17.388 95.6085 16.8625 94.9681 16.5521 94.219C16.2418 93.4698 16.1606 92.6454 16.3188 91.8501C16.477 91.0548 16.8675 90.3242 17.4409 89.7508C18.0143 89.1774 18.7448 88.7869 19.5402 88.6287C20.3355 88.4705 21.1599 88.5517 21.909 88.862C22.6582 89.1724 23.2986 89.6979 23.7491 90.3721C24.1996 91.0464 24.44 91.8391 24.44 92.65C24.44 93.7373 24.0081 94.7802 23.2392 95.5491C22.4703 96.318 21.4274 96.75 20.34 96.75V96.75Z" fill="#47848F"/>
<path d="M64.05 23.13C65.4444 23.13 66.8074 22.7165 67.9668 21.9418C69.1261 21.1672 70.0298 20.0661 70.5634 18.7779C71.097 17.4897 71.2366 16.0722 70.9645 14.7046C70.6925 13.337 70.0211 12.0808 69.0351 11.0949C68.0491 10.1089 66.793 9.43746 65.4254 9.16544C64.0578 8.89341 62.6403 9.03302 61.3521 9.56662C60.0639 10.1002 58.9628 11.0038 58.1881 12.1632C57.4135 13.3226 57 14.6856 57 16.08C57 17.9497 57.7428 19.7429 59.0649 21.0651C60.387 22.3872 62.1802 23.13 64.05 23.13V23.13ZM64.05 20.18C63.2391 20.18 62.4464 19.9395 61.7722 19.489C61.0979 19.0385 60.5724 18.3982 60.2621 17.649C59.9518 16.8998 59.8706 16.0754 60.0288 15.2801C60.187 14.4848 60.5775 13.7542 61.1509 13.1808C61.7243 12.6074 62.4548 12.217 63.2501 12.0588C64.0455 11.9006 64.8698 11.9817 65.619 12.2921C66.3682 12.6024 67.0085 13.1279 67.459 13.8021C67.9095 14.4764 68.15 15.2691 68.15 16.08C68.15 17.1674 67.718 18.2102 66.9491 18.9791C66.1802 19.748 65.1374 20.18 64.05 20.18V20.18ZM65.13 71.77C64.1444 71.9905 63.1154 71.9135 62.1736 71.5485C61.2318 71.1836 60.4196 70.5472 59.8399 69.7201C59.2603 68.893 58.9392 67.9124 58.9175 66.9026C58.8958 65.8928 59.1744 64.8994 59.718 64.0481C60.2617 63.1969 61.0458 62.5262 61.971 62.1211C62.8963 61.7161 63.921 61.5949 64.9152 61.7729C65.9094 61.9509 66.8283 62.4201 67.5556 63.121C68.2828 63.8219 68.7855 64.723 69 65.71C69.2861 67.0264 69.0397 68.4026 68.3146 69.538C67.5895 70.6734 66.4447 71.4758 65.13 71.77V71.77Z" fill="#47848F"/>
</svg>
