<svg width="128" height="128" viewBox="0 0 128 128" fill="none" xmlns="http://www.w3.org/2000/svg">
<path d="M93.809 92.112C94.594 85.579 94.359 84.62 99.225 85.679L100.46 85.787C104.202 85.957 109.097 85.185 111.973 83.849C118.164 80.976 121.834 76.181 115.731 77.44C101.807 80.313 100.85 75.598 100.85 75.598C115.553 53.783 121.699 26.09 116.393 19.311C101.923 0.821976 76.876 9.56498 76.457 9.79098L76.323 9.81598C73.572 9.24498 70.493 8.90397 67.034 8.84797C60.733 8.74397 55.952 10.5 52.325 13.25C52.325 13.25 7.642 -5.15903 9.721 36.401C10.163 45.242 22.393 103.299 36.981 85.763C42.313 79.351 47.465 73.929 47.465 73.929C50.023 75.628 53.087 76.496 56.299 76.184L56.548 75.972C56.47 76.768 56.504 77.547 56.647 78.469C52.89 82.668 53.994 83.405 46.481 84.951C38.879 86.517 43.345 89.306 46.26 90.035C49.795 90.919 57.972 92.171 63.498 84.437L63.278 85.319C64.752 86.499 64.653 93.796 64.861 99.009C65.07 104.223 65.419 109.088 66.482 111.957C67.545 114.825 68.799 122.213 78.673 120.097C86.925 118.333 93.234 115.788 93.809 92.112Z" fill="black"/>
<path d="M75.458 125.256C71.091 125.256 68.247 123.567 66.52 121.936C63.913 119.476 62.879 116.307 62.261 114.414L61.994 113.624C60.75 110.266 60.328 105.431 60.078 99.205C60.04 98.27 60.014 97.307 59.985 96.286C59.964 95.539 59.938 94.602 59.9 93.622C58.3267 94.3722 56.6567 94.8999 54.938 95.19C51.859 95.716 48.549 95.546 45.098 94.683C42.663 94.074 40.133 92.812 38.691 90.863C34.488 94.544 30.479 94.045 28.295 93.316C24.442 92.031 20.994 88.42 17.753 82.279C15.444 77.904 13.211 72.204 11.115 65.336C7.46502 53.376 5.14602 40.779 4.94002 36.643C4.29202 23.698 7.77701 14.44 15.296 9.129C27.157 0.750996 45.128 5.678 51.68 7.915C56.082 5.262 61.261 3.971 67.113 4.064C70.256 4.115 73.249 4.391 76.029 4.887C78.929 3.975 84.657 2.666 91.214 2.748C103.295 2.892 113.306 7.6 120.163 16.363C125.057 22.615 122.637 35.744 120.76 43.014C118.118 53.24 113.489 64.116 107.803 73.584C109.347 73.595 111.584 73.41 114.764 72.753C121.038 71.458 122.873 74.822 123.371 76.328C125.366 82.37 116.694 86.936 113.989 88.192C110.523 89.801 104.872 90.781 100.244 90.569L100.042 90.556L98.826 90.449L98.706 91.463L98.59 92.454C98.279 104.453 96.565 112.052 93.038 117.073C89.341 122.337 84.203 123.812 79.677 124.782C78.133 125.112 76.73 125.256 75.458 125.256V125.256ZM66.268 81.585C69.087 83.841 69.334 88.086 69.555 96.019C69.583 97.009 69.609 97.946 69.644 98.821C69.75 101.471 69.999 107.676 70.971 110.298C71.108 110.669 71.231 111.045 71.361 111.444C72.444 114.76 72.987 116.423 77.67 115.422C81.601 114.579 83.622 113.823 85.204 111.571C87.503 108.297 88.789 101.711 89.025 91.996L93.808 92.112L89.058 91.542L89.198 90.356C89.653 86.446 89.981 83.622 92.594 81.754C94.691 80.256 97.08 80.401 98.983 80.744C96.892 79.164 96.314 77.311 96.16 76.551L95.761 74.586L96.882 72.923C103.339 63.343 108.663 51.569 111.491 40.619C114.397 29.368 113.511 23.393 112.625 22.263C100.896 7.276 80.557 13.464 78.433 14.166L78.074 14.36L76.274 14.695L75.352 14.504C72.81 13.976 69.986 13.684 66.959 13.635C62.203 13.555 58.366 14.679 55.22 17.066L53.037 18.721L50.504 17.678C45.092 15.465 29.196 11.016 20.808 16.957C16.152 20.255 14.031 26.717 14.503 36.164C14.659 39.283 16.778 51.09 20.274 62.541C25.105 78.366 29.495 83.623 31.328 84.234C31.648 84.342 32.478 83.697 33.304 82.705C36.748 78.5764 40.3143 74.5512 43.998 70.635L46.768 67.72L50.117 69.945C51.467 70.842 52.956 71.351 54.485 71.447L62.472 64.635L61.315 76.443C61.289 76.708 61.276 77.069 61.38 77.739L61.728 79.977L60.218 81.665L60.044 81.861L64.432 83.886L66.268 81.585V81.585Z" fill="black"/>
<path d="M115.731 77.44C101.806 80.313 100.849 75.598 100.849 75.598C115.552 53.782 121.698 26.088 116.394 19.311C101.924 0.822997 76.875 9.566 76.457 9.793L76.322 9.817C73.571 9.246 70.492 8.906 67.031 8.85C60.73 8.747 55.951 10.502 52.324 13.252C52.324 13.252 7.64 -5.156 9.718 36.403C10.16 45.245 22.39 103.302 36.978 85.766C42.31 79.354 47.461 73.932 47.461 73.932C50.02 75.631 53.083 76.499 56.294 76.187L56.544 75.975C56.466 76.771 56.502 77.55 56.644 78.472C52.886 82.671 53.99 83.408 46.477 84.954C38.875 86.52 43.341 89.309 46.257 90.038C49.791 90.922 57.969 92.174 63.494 84.44L63.273 85.322C64.746 86.502 65.78 92.994 65.607 98.879C65.433 104.764 65.317 108.805 66.478 111.961C67.638 115.117 68.794 122.217 78.67 120.101C86.922 118.333 91.198 113.75 91.794 106.106C92.216 100.671 93.171 101.475 93.232 96.616L93.999 94.316C94.883 86.949 94.139 84.573 99.224 85.678L100.459 85.786C104.201 85.956 109.098 85.184 111.973 83.848C118.163 80.977 121.834 76.181 115.731 77.44V77.44Z" fill="#336791"/>
<path d="M75.957 122.307C67.725 122.307 65.117 115.788 64.05 113.122C62.488 109.215 62.151 94.053 62.499 81.619C62.5041 81.4093 62.5507 81.2027 62.6361 81.0111C62.7215 80.8195 62.8439 80.6467 62.9963 80.5026C63.1488 80.3585 63.3282 80.2461 63.5243 80.1716C63.7204 80.0972 63.9293 80.0623 64.139 80.069C64.3484 80.0747 64.5547 80.1216 64.7459 80.2071C64.9372 80.2926 65.1098 80.4149 65.2537 80.5671C65.3977 80.7194 65.5102 80.8985 65.5849 81.0942C65.6596 81.29 65.695 81.4985 65.689 81.708C65.288 96.049 65.857 109.045 67.013 111.937C68.817 116.446 71.553 120.39 79.288 118.733C86.631 117.158 89.381 114.374 90.606 107.273C91.546 101.824 93.405 86.322 93.634 83.263C93.6493 83.0539 93.7057 82.85 93.8 82.6628C93.8943 82.4756 94.0246 82.3088 94.1834 82.1721C94.3423 82.0353 94.5266 81.9313 94.7257 81.8659C94.9249 81.8005 95.135 81.775 95.344 81.791C95.7658 81.8229 96.1577 82.0209 96.4336 82.3415C96.7096 82.6621 96.8471 83.0791 96.816 83.501C96.577 86.686 94.727 102.158 93.751 107.816C92.305 116.203 88.566 120.007 79.957 121.853C78.494 122.166 77.165 122.306 75.957 122.307V122.307ZM31.321 90.466C30.6014 90.4635 29.887 90.3453 29.205 90.116C23.858 88.332 18.765 79.624 14.067 64.231C10.491 52.514 8.22496 40.284 8.02596 36.309C7.43696 24.525 10.471 16.188 17.046 11.531C30.053 2.31497 51.934 11.091 52.859 11.469C53.2508 11.629 53.563 11.9382 53.727 12.3285C53.8909 12.7187 53.893 13.1581 53.733 13.55C53.5729 13.9418 53.2637 14.2541 52.8735 14.418C52.4832 14.5819 52.0438 14.584 51.652 14.424C51.441 14.338 30.459 5.93197 18.884 14.139C13.262 18.125 10.681 25.531 11.212 36.15C11.379 39.499 13.496 51.435 17.118 63.299C21.312 77.041 26.085 85.712 30.214 87.089C30.862 87.305 32.834 87.962 35.653 84.572C38.9404 80.6238 42.3511 76.7799 45.88 73.046C46.1752 72.7515 46.5741 72.5842 46.9911 72.58C47.4081 72.5759 47.8102 72.7351 48.1113 73.0237C48.4124 73.3122 48.5886 73.7072 48.6022 74.124C48.6158 74.5409 48.4657 74.9464 48.184 75.254C48.136 75.304 43.337 80.321 38.107 86.613C35.63 89.592 33.256 90.466 31.321 90.466V90.466ZM100.75 77.021C100.461 77.0206 100.177 76.9416 99.9291 76.7924C99.6812 76.6433 99.4786 76.4295 99.3428 76.1741C99.207 75.9187 99.1432 75.6311 99.1582 75.3422C99.1732 75.0534 99.2665 74.774 99.428 74.534C114.291 52.479 119.508 25.83 115.04 20.12C109.416 12.934 101.475 9.18097 91.436 8.96397C84.003 8.80397 78.095 10.702 77.129 11.033L76.886 11.132C75.915 11.437 75.17 10.905 74.889 10.283C74.7287 9.92661 74.7045 9.52393 74.8207 9.15089C74.9369 8.77786 75.1857 8.46025 75.52 8.25797C75.566 8.23097 75.712 8.16897 75.949 8.08197L75.928 8.08797L75.949 8.08097C77.59 7.47997 83.588 5.68097 91.017 5.76597C102.125 5.88397 111.301 10.167 117.551 18.154C120.508 21.933 120.515 30.639 117.57 42.041C114.568 53.666 108.919 66.159 102.073 76.318C101.767 76.775 101.263 77.021 100.75 77.021ZM101.51 87.231C98.972 87.231 96.697 86.873 95.335 86.057C93.935 85.218 93.668 84.078 93.633 83.473C93.251 76.763 96.953 75.595 98.841 75.062C98.578 74.664 98.204 74.196 97.817 73.713C96.716 72.337 95.208 70.453 94.046 67.635C93.864 67.195 93.294 66.172 92.634 64.987C89.055 58.569 81.608 45.214 86.392 38.375C88.606 35.21 93.015 33.964 99.511 34.659C97.6 28.837 88.5 10.625 66.907 10.271C60.413 10.163 55.087 12.16 51.085 16.201C42.125 25.25 42.449 41.623 42.454 41.787C42.4595 41.9964 42.4237 42.2049 42.3486 42.4006C42.2736 42.5962 42.1607 42.7751 42.0165 42.9271C41.8723 43.0791 41.6995 43.2012 41.5081 43.2865C41.3167 43.3717 41.1104 43.4185 40.901 43.424C40.6915 43.4295 40.483 43.3937 40.2874 43.3186C40.0918 43.2436 39.9128 43.1307 39.7608 42.9865C39.6088 42.8423 39.4867 42.6696 39.4014 42.4782C39.3162 42.2868 39.2695 42.0804 39.264 41.871C39.244 41.144 38.91 23.962 48.818 13.955C53.455 9.27197 59.559 6.95997 66.96 7.08097C80.774 7.30797 89.666 14.331 94.692 20.182C100.171 26.559 102.857 33.593 103.078 35.941C103.243 37.687 101.99 38.036 101.737 38.088L101.161 38.101C94.786 37.08 90.696 37.789 89.005 40.205C85.366 45.406 92.411 58.039 95.419 63.434C96.187 64.81 96.741 65.805 96.995 66.419C97.983 68.815 99.272 70.425 100.307 71.719C101.218 72.857 102.007 73.844 102.289 75.002C102.42 75.232 104.279 77.982 115.31 75.705C118.075 75.135 119.733 75.622 120.24 77.155C121.237 80.17 115.643 83.687 112.546 85.125C109.771 86.415 105.342 87.231 101.51 87.231V87.231ZM96.814 83.21C97.164 83.563 98.915 84.172 102.541 84.016C105.765 83.878 109.165 83.177 111.205 82.23C113.814 81.018 115.556 79.663 116.458 78.738L115.958 78.83C108.905 80.286 103.916 80.092 101.13 78.253C100.943 78.1292 100.763 77.9954 100.59 77.852C100.288 77.971 100.009 78.049 99.81 78.105C98.23 78.548 96.596 79.007 96.814 83.21ZM51.252 92.125C49.5 92.125 47.656 91.886 45.773 91.415C43.822 90.927 40.533 89.458 40.583 87.045C40.64 84.338 44.577 83.526 46.059 83.221C51.413 82.118 51.762 81.676 53.435 79.551C53.923 78.932 54.53 78.161 55.358 77.237C56.587 75.861 57.93 75.164 59.35 75.164C60.339 75.164 61.15 75.499 61.686 75.722C63.394 76.43 64.819 78.142 65.405 80.189C65.934 82.036 65.681 83.814 64.695 85.195C61.458 89.728 56.809 92.125 51.252 92.125ZM44.03 87.182C44.511 87.554 45.475 88.051 46.548 88.319C48.179 88.727 49.761 88.934 51.253 88.934C55.799 88.934 59.449 87.052 62.1 83.34C62.653 82.566 62.487 81.583 62.339 81.066C62.029 79.983 61.259 78.998 60.466 78.669C60.036 78.491 59.679 78.355 59.351 78.355C59.175 78.355 58.639 78.355 57.737 79.364C57.1145 80.064 56.5162 80.7851 55.943 81.526C53.859 84.172 52.904 85.07 46.704 86.347C45.191 86.657 44.415 86.973 44.03 87.182ZM56.299 79.822C55.9181 79.8214 55.5499 79.6845 55.2611 79.4362C54.9722 79.1879 54.7817 78.8445 54.724 78.468C54.6843 78.2031 54.6576 77.9365 54.644 77.669C50.58 77.593 46.659 75.849 43.682 72.743C39.918 68.816 38.205 63.375 38.983 57.816C39.828 51.779 39.512 46.45 39.342 43.587C39.295 42.791 39.261 42.216 39.263 41.818C39.266 41.313 39.276 39.974 43.752 37.705C45.344 36.898 48.536 35.49 52.023 35.129C57.8 34.532 61.608 37.105 62.748 42.375C65.825 56.603 62.992 62.896 60.923 67.492C60.538 68.348 60.174 69.156 59.883 69.939L59.626 70.629C58.533 73.56 57.588 76.092 57.878 77.983C57.9098 78.1901 57.9005 78.4014 57.8507 78.6049C57.8008 78.8085 57.7113 79.0002 57.5873 79.1691C57.4634 79.338 57.3073 79.4808 57.1281 79.5894C56.9489 79.698 56.7501 79.7703 56.543 79.802L56.299 79.822ZM42.464 42.26L42.526 43.399C42.702 46.373 43.03 51.907 42.142 58.259C41.501 62.844 42.901 67.319 45.985 70.535C48.422 73.077 51.629 74.48 54.925 74.48H54.993C55.362 72.925 55.975 71.283 56.635 69.514L56.89 68.828C57.219 67.944 57.604 67.088 58.012 66.182C60.003 61.758 62.482 56.251 59.627 43.05C59.062 40.435 57.691 38.922 55.438 38.423C50.81 37.401 43.913 40.882 42.464 42.26V42.26ZM52.094 41.583C52.014 42.147 53.127 43.653 54.579 43.854C56.028 44.057 57.268 42.879 57.347 42.315C57.426 41.751 56.314 41.129 54.862 40.927C53.411 40.725 52.171 41.019 52.094 41.583ZM54.912 44.409L54.505 44.381C53.605 44.256 52.695 43.689 52.072 42.863C51.853 42.573 51.496 42.011 51.567 41.509C51.668 40.773 52.566 40.332 53.967 40.332C54.28 40.332 54.606 40.355 54.934 40.401C55.7 40.507 56.411 40.728 56.936 41.021C57.846 41.529 57.913 42.096 57.872 42.389C57.76 43.202 56.467 44.409 54.912 44.409V44.409ZM52.623 41.677C52.668 42.025 53.53 43.173 54.652 43.328L54.913 43.346C55.949 43.346 56.723 42.531 56.814 42.264C56.718 42.082 56.052 41.63 54.789 41.454C54.517 41.415 54.2427 41.3952 53.968 41.395C53.156 41.395 52.725 41.578 52.623 41.677V41.677ZM96.228 40.432C96.307 40.996 95.195 42.502 93.744 42.704C92.294 42.906 91.053 41.729 90.973 41.165C90.897 40.601 92.009 39.978 93.459 39.777C94.909 39.574 96.148 39.869 96.228 40.432V40.432ZM93.409 42.992C92.013 42.992 90.808 41.906 90.709 41.201C90.594 40.355 91.987 39.712 93.421 39.513C93.737 39.469 94.05 39.447 94.351 39.447C95.589 39.447 96.409 39.81 96.491 40.396C96.544 40.775 96.253 41.36 95.752 41.888C95.421 42.235 94.726 42.836 93.779 42.967L93.409 42.992V42.992ZM94.352 39.979C94.076 39.979 93.788 40 93.496 40.04C92.055 40.241 91.195 40.819 91.237 41.129C91.285 41.47 92.205 42.461 93.41 42.461L93.707 42.44C94.494 42.331 95.085 41.817 95.367 41.521C95.81 41.056 95.986 40.618 95.965 40.469C95.937 40.271 95.405 39.979 94.352 39.979ZM98.317 72.822C98.0279 72.8221 97.7442 72.7437 97.4963 72.595C97.2483 72.4464 97.0455 72.2331 96.9095 71.978C96.7735 71.7229 96.7094 71.4356 96.7241 71.1469C96.7388 70.8582 96.8317 70.5789 96.993 70.339C100.391 65.264 99.769 60.089 99.168 55.084C98.911 52.952 98.647 50.747 98.715 48.631C98.785 46.454 99.062 44.658 99.329 42.921C99.646 40.863 99.946 38.919 99.822 36.611C99.8107 36.4018 99.8407 36.1924 99.9103 35.9948C99.9799 35.7972 100.088 35.6153 100.228 35.4594C100.368 35.3035 100.537 35.1766 100.726 35.0861C100.915 34.9957 101.12 34.9433 101.329 34.932C101.538 34.9207 101.748 34.9507 101.945 35.0203C102.143 35.0899 102.325 35.1978 102.481 35.3377C102.636 35.4777 102.763 35.647 102.854 35.8359C102.944 36.0249 102.997 36.2298 103.008 36.439C103.15 39.077 102.811 41.277 102.483 43.406C102.23 45.049 101.968 46.748 101.905 48.733C101.844 50.607 102.083 52.597 102.336 54.703C102.976 60.025 103.701 66.057 99.645 72.114C99.4989 72.3321 99.3013 72.5108 99.0696 72.6343C98.838 72.7578 98.5795 72.8223 98.317 72.822V72.822Z" fill="white"/>
</svg>
